<?xml version="1.0" encoding="UTF-8"?>
<svg xmlns:svg="http://www.w3.org/2000/svg" xmlns="http://www.w3.org/2000/svg" version="1.1" onmousemove="if (selectedElement) { moveElement(event); }" transform="scale(0.3 0.3)" width="100%" height="720.0">
  <style>

      .draggable {
        cursor: move;
      }
      .word {
        font-family: monospace;
        font-size: 20pt;
      }
  </style>
  <script type="text/ecmascript">
    <![CDATA[var selectedElement = 0;
var currentX = 0;
var currentY = 0;
var currentMatrix = 0;
var selectedElement = null;

function selectElement(evt, target) {
  selectedElement = target;
  currentX = evt.clientX;
  currentY = evt.clientY;
  if (selectedElement.getAttributeNS(null, "transform") === "") {
    selectedElement.setAttributeNS(null, "transform",
      "translate(0 0)");
  }
  currentMatrix = selectedElement.getAttributeNS(null, "transform").slice(10,-1).split(' ');

  for(var i=0; i<currentMatrix.length; i++) {
    currentMatrix[i] = parseFloat(currentMatrix[i]);
  }

  selectedElement.setAttributeNS(null, "onmousemove", "moveElement(evt)");
  selectedElement.setAttributeNS(null, "onmouseup", "deselectElement(evt)");
  evt.preventDefault();
  return false;
}

function moveElement(evt) {
  var dx = evt.clientX - currentX;
  var dy = evt.clientY - currentY;
  currentMatrix[0] += dx;
  currentMatrix[1] += dy;

  selectedElement.setAttributeNS(null, "transform", "translate(" + currentMatrix.join(' ') + ")");
  currentX = evt.clientX;
  currentY = evt.clientY;
  evt.preventDefault();
  return false;
}

function deselectElement(evt) {
  if(selectedElement !== null) {
    selectedElement.removeAttributeNS(null, "onmousemove");
    selectedElement.removeAttributeNS(null, "onmouseout");
    selectedElement.removeAttributeNS(null, "onmouseup");
    selectedElement = null;
  }
}
]]>
  </script>
  <rect x="0" y="0" width="100%" height="100%" fill="#eee"/>
  <g transform="translate(10 60.0)" class="draggable word" onmousedown="selectElement(event, this)">
    <polygon points="0,50.0 0.0,0 238.0,0 238.0,50.0" style="fill:white; stroke:black; stroke-width:1.0"/>
    <text x="20.0" y="35.0">@user =    
</text>
    <g transform="translate(152.0 0)">
      <polygon points="0,8 0,42.0 36.15,42.0 46.35,8" style="fill:#eee; stroke:black; stroke-width:1.0"/>
      <g transform="translate(33.25 8) scale(0.68 0.68)">
        <polygon points="-5,50.5 11.0,-0.5 21.0,-0.5 5,50.5" style="fill:#ddf"/>
      </g>
    </g>
  </g>
  <g transform="translate(10 120.0)" class="draggable word" onmousedown="selectElement(event, this)">
    <polygon points="0,50.0 0.0,0 337.0,0 337.0,50.0" style="fill:white; stroke:black; stroke-width:1.0"/>
    <text x="20.0" y="35.0">@user.color =    
</text>
    <g transform="translate(251.0 0)">
      <polygon points="0,8 0,42.0 36.15,42.0 46.35,8" style="fill:#eee; stroke:black; stroke-width:1.0"/>
      <g transform="translate(33.25 8) scale(0.68 0.68)">
        <polygon points="-5,50.5 11.0,-0.5 21.0,-0.5 5,50.5" style="fill:yellow"/>
      </g>
    </g>
  </g>
  <g transform="translate(10 180.0)" class="draggable word" onmousedown="selectElement(event, this)">
    <polygon points="0,50.0 0.0,0 353.5,0 353.5,50.0" style="fill:white; stroke:black; stroke-width:1.0"/>
    <text x="20.0" y="35.0">@user.letter =    
</text>
    <g transform="translate(267.5 0)">
      <polygon points="0,8 0,42.0 36.15,42.0 46.35,8" style="fill:#eee; stroke:black; stroke-width:1.0"/>
      <g transform="translate(33.25 8) scale(0.68 0.68)">
        <polygon points="-5,50.5 11.0,-0.5 21.0,-0.5 5,50.5" style="fill:yellow"/>
      </g>
    </g>
  </g>
  <g transform="translate(10 240.0)" class="draggable word" onmousedown="selectElement(event, this)">
    <polygon points="0,50.0 0.0,0 353.5,0 353.5,50.0" style="fill:white; stroke:black; stroke-width:1.0"/>
    <text x="20.0" y="35.0">@user.number =    
</text>
    <g transform="translate(267.5 0)">
      <polygon points="0,8 0,42.0 36.15,42.0 46.35,8" style="fill:#eee; stroke:black; stroke-width:1.0"/>
      <g transform="translate(33.25 8) scale(0.68 0.68)">
        <polygon points="-5,50.5 11.0,-0.5 21.0,-0.5 5,50.5" style="fill:yellow"/>
      </g>
    </g>
  </g>
  <g transform="translate(10 300.0)" class="draggable word" onmousedown="selectElement(event, this)">
    <polygon points="0,50.0 0.0,0 238.0,0 238.0,50.0" style="fill:white; stroke:black; stroke-width:1.0"/>
    <text x="20.0" y="35.0">@user.save!
</text>
  </g>
  <g transform="translate(10 360.0)" class="draggable word" onmousedown="selectElement(event, this)">
    <polygon points="0,50.0 0.0,0 122.5,0 122.5,50.0" style="fill:white; stroke:black; stroke-width:1.0"/>
    <text x="20.0" y="35.0">else
</text>
  </g>
  <g transform="translate(10 420.0)" class="draggable word" onmousedown="selectElement(event, this)">
    <polygon points="0,50.0 0.0,0 106.0,0 106.0,50.0" style="fill:white; stroke:black; stroke-width:1.0"/>
    <text x="20.0" y="35.0">end
</text>
  </g>
  <g transform="translate(10 480.0)" class="draggable word" onmousedown="selectElement(event, this)">
    <polygon points="0,50.0 0.0,0 271.0,0 271.0,50.0" style="fill:white; stroke:black; stroke-width:1.0"/>
    <text x="20.0" y="35.0">if     != nil
</text>
    <g transform="translate(69.5 0)">
      <polygon points="0,8 0,42.0 36.15,42.0 46.35,8" style="fill:#eee; stroke:black; stroke-width:1.0"/>
      <g transform="translate(33.25 8) scale(0.68 0.68)">
        <polygon points="-5,50.5 11.0,-0.5 21.0,-0.5 5,50.5" style="fill:transparent"/>
      </g>
    </g>
  </g>
  <g transform="translate(10 540.0)" class="draggable word" onmousedown="selectElement(event, this)">
    <polygon points="0,50.0 0.0,0 271.0,0 271.0,50.0" style="fill:white; stroke:black; stroke-width:1.0"/>
    <text x="20.0" y="35.0">if     == nil
</text>
    <g transform="translate(69.5 0)">
      <polygon points="0,8 0,42.0 36.15,42.0 46.35,8" style="fill:#eee; stroke:black; stroke-width:1.0"/>
      <g transform="translate(33.25 8) scale(0.68 0.68)">
        <polygon points="-5,50.5 11.0,-0.5 21.0,-0.5 5,50.5" style="fill:transparent"/>
      </g>
    </g>
  </g>
  <g transform="translate(10 600.0)" class="draggable word" onmousedown="selectElement(event, this)">
    <polygon points="0,50.0 0.0,0 386.5,0 386.5,50.0" style="fill:white; stroke:black; stroke-width:1.0"/>
    <text x="20.0" y="35.0">redirect    .inspect
</text>
    <g transform="translate(168.5 0)">
      <polygon points="0,8 0,42.0 36.15,42.0 46.35,8" style="fill:#eee; stroke:black; stroke-width:1.0"/>
      <g transform="translate(33.25 8) scale(0.68 0.68)">
        <polygon points="-5,50.5 11.0,-0.5 21.0,-0.5 5,50.5" style="fill:transparent"/>
      </g>
    </g>
  </g>
  <g transform="translate(10 660.0)" class="draggable word" onmousedown="selectElement(event, this)">
    <polygon points="0,50.0 0.0,0 436.0,0 436.0,50.0" style="fill:white; stroke:black; stroke-width:1.0"/>
    <text x="20.0" y="35.0">session[:user_id] =    
</text>
    <g transform="translate(350.0 0)">
      <polygon points="0,8 0,42.0 36.15,42.0 46.35,8" style="fill:#eee; stroke:black; stroke-width:1.0"/>
      <g transform="translate(33.25 8) scale(0.68 0.68)">
        <polygon points="-5,50.5 11.0,-0.5 21.0,-0.5 5,50.5" style="fill:red"/>
      </g>
    </g>
  </g>
  <g transform="translate(510 60.0)" class="draggable word" onmousedown="selectElement(event, this)">
    <polygon points="0,50.0 0.0,0 187.0,0 172.0,50.0" style="fill:white; stroke:black; stroke-width:1.0"/>
    <g transform="translate(172.0 0)">
      <polygon points="-5,50.5 11.0,-0.5 21.0,-0.5 5,50.5" style="fill:red"/>
    </g>
    <text x="20.0" y="35.0">@user.id</text>
  </g>
  <g transform="translate(510 120.0)" class="draggable word" onmousedown="selectElement(event, this)">
    <polygon points="0,50.0 0.0,0 335.5,0 320.5,50.0" style="fill:white; stroke:black; stroke-width:1.0"/>
    <g transform="translate(320.5 0)">
      <polygon points="-5,50.5 11.0,-0.5 21.0,-0.5 5,50.5" style="fill:red"/>
    </g>
    <text x="20.0" y="35.0">session[:user_id]</text>
  </g>
  <g transform="translate(510 180.0)" class="draggable word" onmousedown="selectElement(event, this)">
    <polygon points="0,50.0 0.0,0 236.5,0 221.5,50.0" style="fill:white; stroke:black; stroke-width:1.0"/>
    <g transform="translate(221.5 0)">
      <polygon points="-5,50.5 11.0,-0.5 21.0,-0.5 5,50.5" style="fill:yellow"/>
    </g>
    <text x="20.0" y="35.0">@user.color</text>
  </g>
  <g transform="translate(510 240.0)" class="draggable word" onmousedown="selectElement(event, this)">
    <polygon points="0,50.0 0.0,0 253.0,0 238.0,50.0" style="fill:white; stroke:black; stroke-width:1.0"/>
    <g transform="translate(238.0 0)">
      <polygon points="-5,50.5 11.0,-0.5 21.0,-0.5 5,50.5" style="fill:yellow"/>
    </g>
    <text x="20.0" y="35.0">@user.letter</text>
  </g>
  <g transform="translate(510 300.0)" class="draggable word" onmousedown="selectElement(event, this)">
    <polygon points="0,50.0 0.0,0 253.0,0 238.0,50.0" style="fill:white; stroke:black; stroke-width:1.0"/>
    <g transform="translate(238.0 0)">
      <polygon points="-5,50.5 11.0,-0.5 21.0,-0.5 5,50.5" style="fill:yellow"/>
    </g>
    <text x="20.0" y="35.0">@user.number</text>
  </g>
  <g transform="translate(510 360.0)" class="draggable word" onmousedown="selectElement(event, this)">
    <polygon points="0,50.0 0.0,0 137.5,0 122.5,50.0" style="fill:white; stroke:black; stroke-width:1.0"/>
    <g transform="translate(122.5 0)">
      <polygon points="-5,50.5 11.0,-0.5 21.0,-0.5 5,50.5" style="fill:#ddf"/>
    </g>
    <text x="20.0" y="35.0">@user</text>
  </g>
  <g transform="translate(510 420.0)" class="draggable word" onmousedown="selectElement(event, this)">
    <polygon points="0,50.0 0.0,0 286.0,0 271.0,50.0" style="fill:white; stroke:black; stroke-width:1.0"/>
    <g transform="translate(271.0 0)">
      <polygon points="-5,50.5 11.0,-0.5 21.0,-0.5 5,50.5" style="fill:#ddf"/>
    </g>
    <text x="20.0" y="35.0">User.find(   )</text>
    <g transform="translate(185.0 0)">
      <polygon points="0,8 0,42.0 36.15,42.0 46.35,8" style="fill:#eee; stroke:black; stroke-width:1.0"/>
      <g transform="translate(33.25 8) scale(0.68 0.68)">
        <polygon points="-5,50.5 11.0,-0.5 21.0,-0.5 5,50.5" style="fill:red"/>
      </g>
    </g>
  </g>
  <g transform="translate(510 480.0)" class="draggable word" onmousedown="selectElement(event, this)">
    <polygon points="0,50.0 0.0,0 401.5,0 386.5,50.0" style="fill:white; stroke:black; stroke-width:1.0"/>
    <g transform="translate(386.5 0)">
      <polygon points="-5,50.5 11.0,-0.5 21.0,-0.5 5,50.5" style="fill:#ddf"/>
    </g>
    <text x="20.0" y="35.0">User.find_by(id:    )</text>
    <g transform="translate(300.5 0)">
      <polygon points="0,8 0,42.0 36.15,42.0 46.35,8" style="fill:#eee; stroke:black; stroke-width:1.0"/>
      <g transform="translate(33.25 8) scale(0.68 0.68)">
        <polygon points="-5,50.5 11.0,-0.5 21.0,-0.5 5,50.5" style="fill:red"/>
      </g>
    </g>
  </g>
  <g transform="translate(510 540.0)" class="draggable word" onmousedown="selectElement(event, this)">
    <polygon points="0,50.0 0.0,0 187.0,0 172.0,50.0" style="fill:white; stroke:black; stroke-width:1.0"/>
    <g transform="translate(172.0 0)">
      <polygon points="-5,50.5 11.0,-0.5 21.0,-0.5 5,50.5" style="fill:#ddf"/>
    </g>
    <text x="20.0" y="35.0">User.new</text>
  </g>
  <text x="0" y="15" fill="yellow">STRING</text>
  <text x="100" y="35" fill="orange">SYMBOL</text>
  <text x="200" y="15" fill="red">INTEGER</text>
  <text x="300" y="35" fill="#00f">USER_RELATION</text>
  <text x="400" y="15" fill="#ddf">USER_OBJECT</text>
</svg>
