<?xml version="1.0" encoding="UTF-8"?>
<svg xmlns:svg="http://www.w3.org/2000/svg" xmlns="http://www.w3.org/2000/svg" version="1.1" onmousemove="if (selectedElement) { moveElement(event); }" transform="scale(0.3 0.3)" width="100%" height="930.0">
  <style>

      .draggable {
        cursor: move;
      }
      .word {
        font-family: monospace;
        font-size: 20pt;
      }
  </style>
  <script type="text/ecmascript">
    <![CDATA[var selectedElement = 0;
var currentX = 0;
var currentY = 0;
var currentMatrix = 0;
var selectedElement = null;

function selectElement(evt, target) {
  selectedElement = target;
  currentX = evt.clientX;
  currentY = evt.clientY;
  if (selectedElement.getAttributeNS(null, "transform") === "") {
    selectedElement.setAttributeNS(null, "transform",
      "translate(0 0)");
  }
  currentMatrix = selectedElement.getAttributeNS(null, "transform").slice(10,-1).split(' ');

  for(var i=0; i<currentMatrix.length; i++) {
    currentMatrix[i] = parseFloat(currentMatrix[i]);
  }

  selectedElement.setAttributeNS(null, "onmousemove", "moveElement(evt)");
  selectedElement.setAttributeNS(null, "onmouseup", "deselectElement(evt)");
  evt.preventDefault();
  return false;
}

function moveElement(evt) {
  var dx = evt.clientX - currentX;
  var dy = evt.clientY - currentY;
  currentMatrix[0] += dx;
  currentMatrix[1] += dy;

  selectedElement.setAttributeNS(null, "transform", "translate(" + currentMatrix.join(' ') + ")");
  currentX = evt.clientX;
  currentY = evt.clientY;
  evt.preventDefault();
  return false;
}

function deselectElement(evt) {
  if(selectedElement !== null) {
    selectedElement.removeAttributeNS(null, "onmousemove");
    selectedElement.removeAttributeNS(null, "onmouseout");
    selectedElement.removeAttributeNS(null, "onmouseup");
    selectedElement = null;
  }
}
]]>
  </script>
  <rect x="0" y="0" width="100%" height="100%" fill="#eee"/>
  <g transform="translate(10 60.0)" class="draggable word" onmousedown="selectElement(event, this)">
    <polygon points="0,50.0 0.0,0 271.0,0 271.0,50.0" style="fill:white; stroke:black; stroke-width:1.0"/>
    <text x="20.0" y="35.0">@people =    
</text>
    <g transform="translate(185.0 0)">
      <polygon points="0,8 0,42.0 36.15,42.0 46.35,8" style="fill:#eee; stroke:black; stroke-width:1.0"/>
      <g transform="translate(33.25 8) scale(0.68 0.68)">
        <polygon points="-5,50.5 11.0,-0.5 21.0,-0.5 5,50.5" style="fill:#99f"/>
      </g>
    </g>
  </g>
  <g transform="translate(10 120.0)" class="draggable word" onmousedown="selectElement(event, this)">
    <polygon points="0,50.0 0.0,0 271.0,0 271.0,50.0" style="fill:white; stroke:black; stroke-width:1.0"/>
    <text x="20.0" y="35.0">@person =    
</text>
    <g transform="translate(185.0 0)">
      <polygon points="0,8 0,42.0 36.15,42.0 46.35,8" style="fill:#eee; stroke:black; stroke-width:1.0"/>
      <g transform="translate(33.25 8) scale(0.68 0.68)">
        <polygon points="-5,50.5 11.0,-0.5 21.0,-0.5 5,50.5" style="fill:blue"/>
      </g>
    </g>
  </g>
  <g transform="translate(10 180.0)" class="draggable word" onmousedown="selectElement(event, this)">
    <polygon points="0,50.0 0.0,0 106.0,0 106.0,50.0" style="fill:white; stroke:black; stroke-width:1.0"/>
    <text x="20.0" y="35.0">end
</text>
  </g>
  <g transform="translate(10 240.0)" class="draggable word" onmousedown="selectElement(event, this)">
    <polygon points="0,50.0 0.0,0 320.5,0 320.5,50.0" style="fill:white; stroke:black; stroke-width:1.0"/>
    <text x="20.0" y="35.0">first_name =    
</text>
    <g transform="translate(234.5 0)">
      <polygon points="0,8 0,42.0 36.15,42.0 46.35,8" style="fill:#eee; stroke:black; stroke-width:1.0"/>
      <g transform="translate(33.25 8) scale(0.68 0.68)">
        <polygon points="-5,50.5 11.0,-0.5 21.0,-0.5 5,50.5" style="fill:green"/>
      </g>
    </g>
  </g>
  <g transform="translate(10 300.0)" class="draggable word" onmousedown="selectElement(event, this)">
    <polygon points="0,50.0 0.0,0 320.5,0 320.5,50.0" style="fill:white; stroke:black; stroke-width:1.0"/>
    <text x="20.0" y="35.0">first_name =    
</text>
    <g transform="translate(234.5 0)">
      <polygon points="0,8 0,42.0 36.15,42.0 46.35,8" style="fill:#eee; stroke:black; stroke-width:1.0"/>
      <g transform="translate(33.25 8) scale(0.68 0.68)">
        <polygon points="-5,50.5 11.0,-0.5 21.0,-0.5 5,50.5" style="fill:green"/>
      </g>
    </g>
  </g>
  <g transform="translate(10 360.0)" class="draggable word" onmousedown="selectElement(event, this)">
    <polygon points="0,50.0 0.0,0 271.0,0 271.0,50.0" style="fill:white; stroke:black; stroke-width:1.0"/>
    <text x="20.0" y="35.0">halt erb(   )
</text>
    <g transform="translate(168.5 0)">
      <polygon points="0,8 0,42.0 36.15,42.0 46.35,8" style="fill:#eee; stroke:black; stroke-width:1.0"/>
      <g transform="translate(33.25 8) scale(0.68 0.68)">
        <polygon points="-5,50.5 11.0,-0.5 21.0,-0.5 5,50.5" style="fill:orange"/>
      </g>
    </g>
  </g>
  <g transform="translate(10 420.0)" class="draggable word" onmousedown="selectElement(event, this)">
    <polygon points="0,50.0 0.0,0 238.0,0 238.0,50.0" style="fill:white; stroke:black; stroke-width:1.0"/>
    <text x="20.0" y="35.0">if     == 0
</text>
    <g transform="translate(69.5 0)">
      <polygon points="0,8 0,42.0 36.15,42.0 46.35,8" style="fill:#eee; stroke:black; stroke-width:1.0"/>
      <g transform="translate(33.25 8) scale(0.68 0.68)">
        <polygon points="-5,50.5 11.0,-0.5 21.0,-0.5 5,50.5" style="fill:red"/>
      </g>
    </g>
  </g>
  <g transform="translate(10 480.0)" class="draggable word" onmousedown="selectElement(event, this)">
    <polygon points="0,50.0 0.0,0 238.0,0 238.0,50.0" style="fill:white; stroke:black; stroke-width:1.0"/>
    <text x="20.0" y="35.0">if     == 1
</text>
    <g transform="translate(69.5 0)">
      <polygon points="0,8 0,42.0 36.15,42.0 46.35,8" style="fill:#eee; stroke:black; stroke-width:1.0"/>
      <g transform="translate(33.25 8) scale(0.68 0.68)">
        <polygon points="-5,50.5 11.0,-0.5 21.0,-0.5 5,50.5" style="fill:red"/>
      </g>
    </g>
  </g>
  <g transform="translate(10 540.0)" class="draggable word" onmousedown="selectElement(event, this)">
    <polygon points="0,50.0 0.0,0 238.0,0 238.0,50.0" style="fill:white; stroke:black; stroke-width:1.0"/>
    <text x="20.0" y="35.0">if     &gt;= 2
</text>
    <g transform="translate(69.5 0)">
      <polygon points="0,8 0,42.0 36.15,42.0 46.35,8" style="fill:#eee; stroke:black; stroke-width:1.0"/>
      <g transform="translate(33.25 8) scale(0.68 0.68)">
        <polygon points="-5,50.5 11.0,-0.5 21.0,-0.5 5,50.5" style="fill:red"/>
      </g>
    </g>
  </g>
  <g transform="translate(10 600.0)" class="draggable word" onmousedown="selectElement(event, this)">
    <polygon points="0,50.0 0.0,0 304.0,0 304.0,50.0" style="fill:white; stroke:black; stroke-width:1.0"/>
    <text x="20.0" y="35.0">last_name =    
</text>
    <g transform="translate(218.0 0)">
      <polygon points="0,8 0,42.0 36.15,42.0 46.35,8" style="fill:#eee; stroke:black; stroke-width:1.0"/>
      <g transform="translate(33.25 8) scale(0.68 0.68)">
        <polygon points="-5,50.5 11.0,-0.5 21.0,-0.5 5,50.5" style="fill:green"/>
      </g>
    </g>
  </g>
  <g transform="translate(10 660.0)" class="draggable word" onmousedown="selectElement(event, this)">
    <polygon points="0,50.0 0.0,0 254.5,0 254.5,50.0" style="fill:white; stroke:black; stroke-width:1.0"/>
    <text x="20.0" y="35.0">people =    
</text>
    <g transform="translate(168.5 0)">
      <polygon points="0,8 0,42.0 36.15,42.0 46.35,8" style="fill:#eee; stroke:black; stroke-width:1.0"/>
      <g transform="translate(33.25 8) scale(0.68 0.68)">
        <polygon points="-5,50.5 11.0,-0.5 21.0,-0.5 5,50.5" style="fill:#99f"/>
      </g>
    </g>
  </g>
  <g transform="translate(10 720.0)" class="draggable word" onmousedown="selectElement(event, this)">
    <polygon points="0,50.0 0.0,0 154.0,0 139.0,50.0" style="fill:white; stroke:black; stroke-width:1.0"/>
    <g transform="translate(139.0 0)">
      <polygon points="-5,50.5 11.0,-0.5 21.0,-0.5 5,50.5" style="fill:#aff"/>
    </g>
    <text x="20.0" y="35.0">Person</text>
  </g>
  <g transform="translate(10 780.0)" class="draggable word" onmousedown="selectElement(event, this)">
    <polygon points="0,50.0 0.0,0 170.5,0 155.5,50.0" style="fill:white; stroke:black; stroke-width:1.0"/>
    <g transform="translate(155.5 0)">
      <polygon points="-5,50.5 11.0,-0.5 21.0,-0.5 5,50.5" style="fill:blue"/>
    </g>
    <text x="20.0" y="35.0">@person</text>
  </g>
  <g transform="translate(10 840.0)" class="draggable word" onmousedown="selectElement(event, this)">
    <polygon points="0,50.0 15.0,0 467.5,0 452.5,50.0" style="fill:white; stroke:black; stroke-width:1.0"/>
    <polygon points="-5,50.5 11.0,-0.5 21.0,-0.5 5,50.5" style="fill:#aff"/>
    <g transform="translate(452.5 0)">
      <polygon points="-5,50.5 11.0,-0.5 21.0,-0.5 5,50.5" style="fill:blue"/>
    </g>
    <text x="20.0" y="35.0">.find_by(first_name:    )</text>
    <g transform="translate(366.5 0)">
      <polygon points="0,8 0,42.0 36.15,42.0 46.35,8" style="fill:#eee; stroke:black; stroke-width:1.0"/>
      <g transform="translate(33.25 8) scale(0.68 0.68)">
        <polygon points="-5,50.5 11.0,-0.5 21.0,-0.5 5,50.5" style="fill:green"/>
      </g>
    </g>
  </g>
  <g transform="translate(510 60.0)" class="draggable word" onmousedown="selectElement(event, this)">
    <polygon points="0,50.0 15.0,0 154.0,0 139.0,50.0" style="fill:white; stroke:black; stroke-width:1.0"/>
    <polygon points="-5,50.5 11.0,-0.5 21.0,-0.5 5,50.5" style="fill:#99f"/>
    <g transform="translate(139.0 0)">
      <polygon points="-5,50.5 11.0,-0.5 21.0,-0.5 5,50.5" style="fill:blue"/>
    </g>
    <text x="20.0" y="35.0">.first</text>
  </g>
  <g transform="translate(510 120.0)" class="draggable word" onmousedown="selectElement(event, this)">
    <polygon points="0,50.0 0.0,0 170.5,0 155.5,50.0" style="fill:white; stroke:black; stroke-width:1.0"/>
    <g transform="translate(155.5 0)">
      <polygon points="-5,50.5 11.0,-0.5 21.0,-0.5 5,50.5" style="fill:#99f"/>
    </g>
    <text x="20.0" y="35.0">@people</text>
  </g>
  <g transform="translate(510 180.0)" class="draggable word" onmousedown="selectElement(event, this)">
    <polygon points="0,50.0 15.0,0 434.5,0 419.5,50.0" style="fill:white; stroke:black; stroke-width:1.0"/>
    <polygon points="-5,50.5 11.0,-0.5 21.0,-0.5 5,50.5" style="fill:#aff"/>
    <g transform="translate(419.5 0)">
      <polygon points="-5,50.5 11.0,-0.5 21.0,-0.5 5,50.5" style="fill:#99f"/>
    </g>
    <text x="20.0" y="35.0">.where(first_name:    )</text>
    <g transform="translate(333.5 0)">
      <polygon points="0,8 0,42.0 36.15,42.0 46.35,8" style="fill:#eee; stroke:black; stroke-width:1.0"/>
      <g transform="translate(33.25 8) scale(0.68 0.68)">
        <polygon points="-5,50.5 11.0,-0.5 21.0,-0.5 5,50.5" style="fill:green"/>
      </g>
    </g>
  </g>
  <g transform="translate(510 240.0)" class="draggable word" onmousedown="selectElement(event, this)">
    <polygon points="0,50.0 15.0,0 418.0,0 403.0,50.0" style="fill:white; stroke:black; stroke-width:1.0"/>
    <polygon points="-5,50.5 11.0,-0.5 21.0,-0.5 5,50.5" style="fill:#99f"/>
    <g transform="translate(403.0 0)">
      <polygon points="-5,50.5 11.0,-0.5 21.0,-0.5 5,50.5" style="fill:#99f"/>
    </g>
    <text x="20.0" y="35.0">.where(last_name:    )</text>
    <g transform="translate(317.0 0)">
      <polygon points="0,8 0,42.0 36.15,42.0 46.35,8" style="fill:#eee; stroke:black; stroke-width:1.0"/>
      <g transform="translate(33.25 8) scale(0.68 0.68)">
        <polygon points="-5,50.5 11.0,-0.5 21.0,-0.5 5,50.5" style="fill:green"/>
      </g>
    </g>
  </g>
  <g transform="translate(510 300.0)" class="draggable word" onmousedown="selectElement(event, this)">
    <polygon points="0,50.0 15.0,0 137.5,0 122.5,50.0" style="fill:white; stroke:black; stroke-width:1.0"/>
    <polygon points="-5,50.5 11.0,-0.5 21.0,-0.5 5,50.5" style="fill:#99f"/>
    <g transform="translate(122.5 0)">
      <polygon points="-5,50.5 11.0,-0.5 21.0,-0.5 5,50.5" style="fill:red"/>
    </g>
    <text x="20.0" y="35.0">.size</text>
  </g>
  <g transform="translate(510 360.0)" class="draggable word" onmousedown="selectElement(event, this)">
    <polygon points="0,50.0 0.0,0 253.0,0 238.0,50.0" style="fill:white; stroke:black; stroke-width:1.0"/>
    <g transform="translate(238.0 0)">
      <polygon points="-5,50.5 11.0,-0.5 21.0,-0.5 5,50.5" style="fill:green"/>
    </g>
    <text x="20.0" y="35.0">"first_name"</text>
  </g>
  <g transform="translate(510 420.0)" class="draggable word" onmousedown="selectElement(event, this)">
    <polygon points="0,50.0 0.0,0 236.5,0 221.5,50.0" style="fill:white; stroke:black; stroke-width:1.0"/>
    <g transform="translate(221.5 0)">
      <polygon points="-5,50.5 11.0,-0.5 21.0,-0.5 5,50.5" style="fill:green"/>
    </g>
    <text x="20.0" y="35.0">"last_name"</text>
  </g>
  <g transform="translate(510 480.0)" class="draggable word" onmousedown="selectElement(event, this)">
    <polygon points="0,50.0 0.0,0 220.0,0 205.0,50.0" style="fill:white; stroke:black; stroke-width:1.0"/>
    <g transform="translate(205.0 0)">
      <polygon points="-5,50.5 11.0,-0.5 21.0,-0.5 5,50.5" style="fill:green"/>
    </g>
    <text x="20.0" y="35.0">first_name</text>
  </g>
  <g transform="translate(510 540.0)" class="draggable word" onmousedown="selectElement(event, this)">
    <polygon points="0,50.0 0.0,0 203.5,0 188.5,50.0" style="fill:white; stroke:black; stroke-width:1.0"/>
    <g transform="translate(188.5 0)">
      <polygon points="-5,50.5 11.0,-0.5 21.0,-0.5 5,50.5" style="fill:green"/>
    </g>
    <text x="20.0" y="35.0">last_name</text>
  </g>
  <g transform="translate(510 600.0)" class="draggable word" onmousedown="selectElement(event, this)">
    <polygon points="0,50.0 0.0,0 236.5,0 221.5,50.0" style="fill:white; stroke:black; stroke-width:1.0"/>
    <g transform="translate(221.5 0)">
      <polygon points="-5,50.5 11.0,-0.5 21.0,-0.5 5,50.5" style="fill:green"/>
    </g>
    <text x="20.0" y="35.0">params[   ]</text>
    <g transform="translate(135.5 0)">
      <polygon points="0,8 0,42.0 36.15,42.0 46.35,8" style="fill:#eee; stroke:black; stroke-width:1.0"/>
      <g transform="translate(33.25 8) scale(0.68 0.68)">
        <polygon points="-5,50.5 11.0,-0.5 21.0,-0.5 5,50.5" style="fill:green"/>
      </g>
    </g>
  </g>
  <g transform="translate(510 660.0)" class="draggable word" onmousedown="selectElement(event, this)">
    <polygon points="0,50.0 0.0,0 170.5,0 155.5,50.0" style="fill:white; stroke:black; stroke-width:1.0"/>
    <g transform="translate(155.5 0)">
      <polygon points="-5,50.5 11.0,-0.5 21.0,-0.5 5,50.5" style="fill:orange"/>
    </g>
    <text x="20.0" y="35.0">:choose</text>
  </g>
  <g transform="translate(510 720.0)" class="draggable word" onmousedown="selectElement(event, this)">
    <polygon points="0,50.0 0.0,0 170.5,0 155.5,50.0" style="fill:white; stroke:black; stroke-width:1.0"/>
    <g transform="translate(155.5 0)">
      <polygon points="-5,50.5 11.0,-0.5 21.0,-0.5 5,50.5" style="fill:orange"/>
    </g>
    <text x="20.0" y="35.0">:no_one</text>
  </g>
  <g transform="translate(510 780.0)" class="draggable word" onmousedown="selectElement(event, this)">
    <polygon points="0,50.0 0.0,0 170.5,0 155.5,50.0" style="fill:white; stroke:black; stroke-width:1.0"/>
    <g transform="translate(155.5 0)">
      <polygon points="-5,50.5 11.0,-0.5 21.0,-0.5 5,50.5" style="fill:orange"/>
    </g>
    <text x="20.0" y="35.0">:number</text>
  </g>
  <text x="0" y="15" fill="#aff">AR_CLASS_OBJECT</text>
  <text x="100" y="35" fill="#99f">AR_RELATION</text>
  <text x="200" y="15" fill="blue">AR_OBJECT</text>
  <text x="300" y="35" fill="green">STRING</text>
  <text x="400" y="15" fill="orange">SYMBOL</text>
  <text x="500" y="35" fill="red">INT</text>
</svg>
