<?xml version="1.0" encoding="UTF-8"?>
<svg xmlns:svg="http://www.w3.org/2000/svg" xmlns="http://www.w3.org/2000/svg" version="1.1" onmousemove="if (selectedElement) { moveElement(event); }" transform="scale(0.3 0.3)" width="100%" height="1290.0">
  <style>

      .draggable {
        cursor: move;
      }
      .word {
        font-family: monospace;
        font-size: 20pt;
      }
  </style>
  <script type="text/ecmascript">
    <![CDATA[var selectedElement = 0;
var currentX = 0;
var currentY = 0;
var currentMatrix = 0;
var selectedElement = null;

function selectElement(evt, target) {
  selectedElement = target;
  currentX = evt.clientX;
  currentY = evt.clientY;
  if (selectedElement.getAttributeNS(null, "transform") === "") {
    selectedElement.setAttributeNS(null, "transform",
      "translate(0 0)");
  }
  currentMatrix = selectedElement.getAttributeNS(null, "transform").slice(10,-1).split(' ');

  for(var i=0; i<currentMatrix.length; i++) {
    currentMatrix[i] = parseFloat(currentMatrix[i]);
  }

  selectedElement.setAttributeNS(null, "onmousemove", "moveElement(evt)");
  selectedElement.setAttributeNS(null, "onmouseup", "deselectElement(evt)");
  evt.preventDefault();
  return false;
}

function moveElement(evt) {
  var dx = evt.clientX - currentX;
  var dy = evt.clientY - currentY;
  currentMatrix[0] += dx;
  currentMatrix[1] += dy;

  selectedElement.setAttributeNS(null, "transform", "translate(" + currentMatrix.join(' ') + ")");
  currentX = evt.clientX;
  currentY = evt.clientY;
  evt.preventDefault();
  return false;
}

function deselectElement(evt) {
  if(selectedElement !== null) {
    selectedElement.removeAttributeNS(null, "onmousemove");
    selectedElement.removeAttributeNS(null, "onmouseout");
    selectedElement.removeAttributeNS(null, "onmouseup");
    selectedElement = null;
  }
}
]]>
  </script>
  <rect x="0" y="0" width="100%" height="100%" fill="#eee"/>
  <g transform="translate(10 60.0)" class="draggable word" onmousedown="selectElement(event, this)">
    <polygon points="0,50.0 0.0,0 320.5,0 320.5,50.0" style="fill:white; stroke:black; stroke-width:1.0"/>
    <text x="20.0" y="35.0">@employees =    
</text>
    <g transform="translate(234.5 0)">
      <polygon points="0,8 0,42.0 36.15,42.0 46.35,8" style="fill:#eee; stroke:black; stroke-width:1.0"/>
      <g transform="translate(33.25 8) scale(0.68 0.68)">
        <polygon points="-5,50.5 11.0,-0.5 21.0,-0.5 5,50.5" style="fill:#00f"/>
      </g>
    </g>
  </g>
  <g transform="translate(10 120.0)" class="draggable word" onmousedown="selectElement(event, this)">
    <polygon points="0,50.0 0.0,0 370.0,0 370.0,50.0" style="fill:white; stroke:black; stroke-width:1.0"/>
    <text x="20.0" y="35.0">@new_employee =    
</text>
    <g transform="translate(284.0 0)">
      <polygon points="0,8 0,42.0 36.15,42.0 46.35,8" style="fill:#eee; stroke:black; stroke-width:1.0"/>
      <g transform="translate(33.25 8) scale(0.68 0.68)">
        <polygon points="-5,50.5 11.0,-0.5 21.0,-0.5 5,50.5" style="fill:#ddf"/>
      </g>
    </g>
  </g>
  <g transform="translate(10 180.0)" class="draggable word" onmousedown="selectElement(event, this)">
    <polygon points="0,50.0 0.0,0 271.0,0 271.0,50.0" style="fill:white; stroke:black; stroke-width:1.0"/>
    <text x="20.0" y="35.0">company =    
</text>
    <g transform="translate(185.0 0)">
      <polygon points="0,8 0,42.0 36.15,42.0 46.35,8" style="fill:#eee; stroke:black; stroke-width:1.0"/>
      <g transform="translate(33.25 8) scale(0.68 0.68)">
        <polygon points="-5,50.5 11.0,-0.5 21.0,-0.5 5,50.5" style="fill:#dfd"/>
      </g>
    </g>
  </g>
  <g transform="translate(10 240.0)" class="draggable word" onmousedown="selectElement(event, this)">
    <polygon points="0,50.0 0.0,0 122.5,0 122.5,50.0" style="fill:white; stroke:black; stroke-width:1.0"/>
    <text x="20.0" y="35.0">else
</text>
  </g>
  <g transform="translate(10 300.0)" class="draggable word" onmousedown="selectElement(event, this)">
    <polygon points="0,50.0 0.0,0 287.5,0 287.5,50.0" style="fill:white; stroke:black; stroke-width:1.0"/>
    <text x="20.0" y="35.0">employee =    
</text>
    <g transform="translate(201.5 0)">
      <polygon points="0,8 0,42.0 36.15,42.0 46.35,8" style="fill:#eee; stroke:black; stroke-width:1.0"/>
      <g transform="translate(33.25 8) scale(0.68 0.68)">
        <polygon points="-5,50.5 11.0,-0.5 21.0,-0.5 5,50.5" style="fill:#ddf"/>
      </g>
    </g>
  </g>
  <g transform="translate(10 360.0)" class="draggable word" onmousedown="selectElement(event, this)">
    <polygon points="0,50.0 0.0,0 106.0,0 106.0,50.0" style="fill:white; stroke:black; stroke-width:1.0"/>
    <text x="20.0" y="35.0">end
</text>
  </g>
  <g transform="translate(10 420.0)" class="draggable word" onmousedown="selectElement(event, this)">
    <polygon points="0,50.0 0.0,0 271.0,0 271.0,50.0" style="fill:white; stroke:black; stroke-width:1.0"/>
    <text x="20.0" y="35.0">halt erb(   )
</text>
    <g transform="translate(168.5 0)">
      <polygon points="0,8 0,42.0 36.15,42.0 46.35,8" style="fill:#eee; stroke:black; stroke-width:1.0"/>
      <g transform="translate(33.25 8) scale(0.68 0.68)">
        <polygon points="-5,50.5 11.0,-0.5 21.0,-0.5 5,50.5" style="fill:orange"/>
      </g>
    </g>
  </g>
  <g transform="translate(10 480.0)" class="draggable word" onmousedown="selectElement(event, this)">
    <polygon points="0,50.0 0.0,0 271.0,0 271.0,50.0" style="fill:white; stroke:black; stroke-width:1.0"/>
    <text x="20.0" y="35.0">if     == nil
</text>
    <g transform="translate(69.5 0)">
      <polygon points="0,8 0,42.0 36.15,42.0 46.35,8" style="fill:#eee; stroke:black; stroke-width:1.0"/>
      <g transform="translate(33.25 8) scale(0.68 0.68)">
        <polygon points="-5,50.5 11.0,-0.5 21.0,-0.5 5,50.5" style="fill:transparent"/>
      </g>
    </g>
  </g>
  <g transform="translate(10 540.0)" class="draggable word" onmousedown="selectElement(event, this)">
    <polygon points="0,50.0 0.0,0 170.5,0 155.5,50.0" style="fill:white; stroke:black; stroke-width:1.0"/>
    <g transform="translate(155.5 0)">
      <polygon points="-5,50.5 11.0,-0.5 21.0,-0.5 5,50.5" style="fill:#060"/>
    </g>
    <text x="20.0" y="35.0">Company</text>
  </g>
  <g transform="translate(10 600.0)" class="draggable word" onmousedown="selectElement(event, this)">
    <polygon points="0,50.0 0.0,0 170.5,0 155.5,50.0" style="fill:white; stroke:black; stroke-width:1.0"/>
    <g transform="translate(155.5 0)">
      <polygon points="-5,50.5 11.0,-0.5 21.0,-0.5 5,50.5" style="fill:#dfd"/>
    </g>
    <text x="20.0" y="35.0">company</text>
  </g>
  <g transform="translate(10 660.0)" class="draggable word" onmousedown="selectElement(event, this)">
    <polygon points="0,50.0 15.0,0 220.0,0 205.0,50.0" style="fill:white; stroke:black; stroke-width:1.0"/>
    <polygon points="-5,50.5 11.0,-0.5 21.0,-0.5 5,50.5" style="fill:#060"/>
    <g transform="translate(205.0 0)">
      <polygon points="-5,50.5 11.0,-0.5 21.0,-0.5 5,50.5" style="fill:#dfd"/>
    </g>
    <text x="20.0" y="35.0">.find(   )</text>
    <g transform="translate(119.0 0)">
      <polygon points="0,8 0,42.0 36.15,42.0 46.35,8" style="fill:#eee; stroke:black; stroke-width:1.0"/>
      <g transform="translate(33.25 8) scale(0.68 0.68)">
        <polygon points="-5,50.5 11.0,-0.5 21.0,-0.5 5,50.5" style="fill:red"/>
      </g>
    </g>
  </g>
  <g transform="translate(10 720.0)" class="draggable word" onmousedown="selectElement(event, this)">
    <polygon points="0,50.0 15.0,0 335.5,0 320.5,50.0" style="fill:white; stroke:black; stroke-width:1.0"/>
    <polygon points="-5,50.5 11.0,-0.5 21.0,-0.5 5,50.5" style="fill:#060"/>
    <g transform="translate(320.5 0)">
      <polygon points="-5,50.5 11.0,-0.5 21.0,-0.5 5,50.5" style="fill:#dfd"/>
    </g>
    <text x="20.0" y="35.0">.find_by(id:    )</text>
    <g transform="translate(234.5 0)">
      <polygon points="0,8 0,42.0 36.15,42.0 46.35,8" style="fill:#eee; stroke:black; stroke-width:1.0"/>
      <g transform="translate(33.25 8) scale(0.68 0.68)">
        <polygon points="-5,50.5 11.0,-0.5 21.0,-0.5 5,50.5" style="fill:red"/>
      </g>
    </g>
  </g>
  <g transform="translate(10 780.0)" class="draggable word" onmousedown="selectElement(event, this)">
    <polygon points="0,50.0 15.0,0 368.5,0 353.5,50.0" style="fill:white; stroke:black; stroke-width:1.0"/>
    <polygon points="-5,50.5 11.0,-0.5 21.0,-0.5 5,50.5" style="fill:#060"/>
    <g transform="translate(353.5 0)">
      <polygon points="-5,50.5 11.0,-0.5 21.0,-0.5 5,50.5" style="fill:#dfd"/>
    </g>
    <text x="20.0" y="35.0">.find_by(name:    )</text>
    <g transform="translate(267.5 0)">
      <polygon points="0,8 0,42.0 36.15,42.0 46.35,8" style="fill:#eee; stroke:black; stroke-width:1.0"/>
      <g transform="translate(33.25 8) scale(0.68 0.68)">
        <polygon points="-5,50.5 11.0,-0.5 21.0,-0.5 5,50.5" style="fill:yellow"/>
      </g>
    </g>
  </g>
  <g transform="translate(10 840.0)" class="draggable word" onmousedown="selectElement(event, this)">
    <polygon points="0,50.0 15.0,0 154.0,0 139.0,50.0" style="fill:white; stroke:black; stroke-width:1.0"/>
    <polygon points="-5,50.5 11.0,-0.5 21.0,-0.5 5,50.5" style="fill:#0f0"/>
    <g transform="translate(139.0 0)">
      <polygon points="-5,50.5 11.0,-0.5 21.0,-0.5 5,50.5" style="fill:#dfd"/>
    </g>
    <text x="20.0" y="35.0">.first</text>
  </g>
  <g transform="translate(10 900.0)" class="draggable word" onmousedown="selectElement(event, this)">
    <polygon points="0,50.0 15.0,0 236.5,0 221.5,50.0" style="fill:white; stroke:black; stroke-width:1.0"/>
    <polygon points="-5,50.5 11.0,-0.5 21.0,-0.5 5,50.5" style="fill:#060"/>
    <g transform="translate(221.5 0)">
      <polygon points="-5,50.5 11.0,-0.5 21.0,-0.5 5,50.5" style="fill:#0f0"/>
    </g>
    <text x="20.0" y="35.0">.order(   )</text>
    <g transform="translate(135.5 0)">
      <polygon points="0,8 0,42.0 36.15,42.0 46.35,8" style="fill:#eee; stroke:black; stroke-width:1.0"/>
      <g transform="translate(33.25 8) scale(0.68 0.68)">
        <polygon points="-5,50.5 11.0,-0.5 21.0,-0.5 5,50.5" style="fill:orange"/>
      </g>
    </g>
  </g>
  <g transform="translate(10 960.0)" class="draggable word" onmousedown="selectElement(event, this)">
    <polygon points="0,50.0 15.0,0 335.5,0 320.5,50.0" style="fill:white; stroke:black; stroke-width:1.0"/>
    <polygon points="-5,50.5 11.0,-0.5 21.0,-0.5 5,50.5" style="fill:#060"/>
    <g transform="translate(320.5 0)">
      <polygon points="-5,50.5 11.0,-0.5 21.0,-0.5 5,50.5" style="fill:#0f0"/>
    </g>
    <text x="20.0" y="35.0">.where(name:    )</text>
    <g transform="translate(234.5 0)">
      <polygon points="0,8 0,42.0 36.15,42.0 46.35,8" style="fill:#eee; stroke:black; stroke-width:1.0"/>
      <g transform="translate(33.25 8) scale(0.68 0.68)">
        <polygon points="-5,50.5 11.0,-0.5 21.0,-0.5 5,50.5" style="fill:yellow"/>
      </g>
    </g>
  </g>
  <g transform="translate(10 1020.0)" class="draggable word" onmousedown="selectElement(event, this)">
    <polygon points="0,50.0 0.0,0 187.0,0 172.0,50.0" style="fill:white; stroke:black; stroke-width:1.0"/>
    <g transform="translate(172.0 0)">
      <polygon points="-5,50.5 11.0,-0.5 21.0,-0.5 5,50.5" style="fill:#006"/>
    </g>
    <text x="20.0" y="35.0">Employee</text>
  </g>
  <g transform="translate(10 1080.0)" class="draggable word" onmousedown="selectElement(event, this)">
    <polygon points="0,50.0 0.0,0 269.5,0 254.5,50.0" style="fill:white; stroke:black; stroke-width:1.0"/>
    <g transform="translate(254.5 0)">
      <polygon points="-5,50.5 11.0,-0.5 21.0,-0.5 5,50.5" style="fill:#ddf"/>
    </g>
    <text x="20.0" y="35.0">@new_employee</text>
  </g>
  <g transform="translate(10 1140.0)" class="draggable word" onmousedown="selectElement(event, this)">
    <polygon points="0,50.0 0.0,0 187.0,0 172.0,50.0" style="fill:white; stroke:black; stroke-width:1.0"/>
    <g transform="translate(172.0 0)">
      <polygon points="-5,50.5 11.0,-0.5 21.0,-0.5 5,50.5" style="fill:#ddf"/>
    </g>
    <text x="20.0" y="35.0">employee</text>
  </g>
  <g transform="translate(10 1200.0)" class="draggable word" onmousedown="selectElement(event, this)">
    <polygon points="0,50.0 15.0,0 220.0,0 205.0,50.0" style="fill:white; stroke:black; stroke-width:1.0"/>
    <polygon points="-5,50.5 11.0,-0.5 21.0,-0.5 5,50.5" style="fill:#006"/>
    <g transform="translate(205.0 0)">
      <polygon points="-5,50.5 11.0,-0.5 21.0,-0.5 5,50.5" style="fill:#ddf"/>
    </g>
    <text x="20.0" y="35.0">.find(   )</text>
    <g transform="translate(119.0 0)">
      <polygon points="0,8 0,42.0 36.15,42.0 46.35,8" style="fill:#eee; stroke:black; stroke-width:1.0"/>
      <g transform="translate(33.25 8) scale(0.68 0.68)">
        <polygon points="-5,50.5 11.0,-0.5 21.0,-0.5 5,50.5" style="fill:red"/>
      </g>
    </g>
  </g>
  <g transform="translate(10 1260.0)" class="draggable word" onmousedown="selectElement(event, this)">
    <polygon points="0,50.0 15.0,0 335.5,0 320.5,50.0" style="fill:white; stroke:black; stroke-width:1.0"/>
    <polygon points="-5,50.5 11.0,-0.5 21.0,-0.5 5,50.5" style="fill:#006"/>
    <g transform="translate(320.5 0)">
      <polygon points="-5,50.5 11.0,-0.5 21.0,-0.5 5,50.5" style="fill:#ddf"/>
    </g>
    <text x="20.0" y="35.0">.find_by(id:    )</text>
    <g transform="translate(234.5 0)">
      <polygon points="0,8 0,42.0 36.15,42.0 46.35,8" style="fill:#eee; stroke:black; stroke-width:1.0"/>
      <g transform="translate(33.25 8) scale(0.68 0.68)">
        <polygon points="-5,50.5 11.0,-0.5 21.0,-0.5 5,50.5" style="fill:red"/>
      </g>
    </g>
  </g>
  <g transform="translate(510 60.0)" class="draggable word" onmousedown="selectElement(event, this)">
    <polygon points="0,50.0 15.0,0 368.5,0 353.5,50.0" style="fill:white; stroke:black; stroke-width:1.0"/>
    <polygon points="-5,50.5 11.0,-0.5 21.0,-0.5 5,50.5" style="fill:#006"/>
    <g transform="translate(353.5 0)">
      <polygon points="-5,50.5 11.0,-0.5 21.0,-0.5 5,50.5" style="fill:#ddf"/>
    </g>
    <text x="20.0" y="35.0">.find_by(name:    )</text>
    <g transform="translate(267.5 0)">
      <polygon points="0,8 0,42.0 36.15,42.0 46.35,8" style="fill:#eee; stroke:black; stroke-width:1.0"/>
      <g transform="translate(33.25 8) scale(0.68 0.68)">
        <polygon points="-5,50.5 11.0,-0.5 21.0,-0.5 5,50.5" style="fill:yellow"/>
      </g>
    </g>
  </g>
  <g transform="translate(510 120.0)" class="draggable word" onmousedown="selectElement(event, this)">
    <polygon points="0,50.0 15.0,0 154.0,0 139.0,50.0" style="fill:white; stroke:black; stroke-width:1.0"/>
    <polygon points="-5,50.5 11.0,-0.5 21.0,-0.5 5,50.5" style="fill:#00f"/>
    <g transform="translate(139.0 0)">
      <polygon points="-5,50.5 11.0,-0.5 21.0,-0.5 5,50.5" style="fill:#ddf"/>
    </g>
    <text x="20.0" y="35.0">.first</text>
  </g>
  <g transform="translate(510 180.0)" class="draggable word" onmousedown="selectElement(event, this)">
    <polygon points="0,50.0 0.0,0 220.0,0 205.0,50.0" style="fill:white; stroke:black; stroke-width:1.0"/>
    <g transform="translate(205.0 0)">
      <polygon points="-5,50.5 11.0,-0.5 21.0,-0.5 5,50.5" style="fill:#00f"/>
    </g>
    <text x="20.0" y="35.0">@employees</text>
  </g>
  <g transform="translate(510 240.0)" class="draggable word" onmousedown="selectElement(event, this)">
    <polygon points="0,50.0 15.0,0 236.5,0 221.5,50.0" style="fill:white; stroke:black; stroke-width:1.0"/>
    <polygon points="-5,50.5 11.0,-0.5 21.0,-0.5 5,50.5" style="fill:#006"/>
    <g transform="translate(221.5 0)">
      <polygon points="-5,50.5 11.0,-0.5 21.0,-0.5 5,50.5" style="fill:#00f"/>
    </g>
    <text x="20.0" y="35.0">.order(   )</text>
    <g transform="translate(135.5 0)">
      <polygon points="0,8 0,42.0 36.15,42.0 46.35,8" style="fill:#eee; stroke:black; stroke-width:1.0"/>
      <g transform="translate(33.25 8) scale(0.68 0.68)">
        <polygon points="-5,50.5 11.0,-0.5 21.0,-0.5 5,50.5" style="fill:orange"/>
      </g>
    </g>
  </g>
  <g transform="translate(510 300.0)" class="draggable word" onmousedown="selectElement(event, this)">
    <polygon points="0,50.0 15.0,0 434.5,0 419.5,50.0" style="fill:white; stroke:black; stroke-width:1.0"/>
    <polygon points="-5,50.5 11.0,-0.5 21.0,-0.5 5,50.5" style="fill:#006"/>
    <g transform="translate(419.5 0)">
      <polygon points="-5,50.5 11.0,-0.5 21.0,-0.5 5,50.5" style="fill:#00f"/>
    </g>
    <text x="20.0" y="35.0">.where(company_id:    )</text>
    <g transform="translate(333.5 0)">
      <polygon points="0,8 0,42.0 36.15,42.0 46.35,8" style="fill:#eee; stroke:black; stroke-width:1.0"/>
      <g transform="translate(33.25 8) scale(0.68 0.68)">
        <polygon points="-5,50.5 11.0,-0.5 21.0,-0.5 5,50.5" style="fill:red"/>
      </g>
    </g>
  </g>
  <g transform="translate(510 360.0)" class="draggable word" onmousedown="selectElement(event, this)">
    <polygon points="0,50.0 15.0,0 335.5,0 320.5,50.0" style="fill:white; stroke:black; stroke-width:1.0"/>
    <polygon points="-5,50.5 11.0,-0.5 21.0,-0.5 5,50.5" style="fill:#006"/>
    <g transform="translate(320.5 0)">
      <polygon points="-5,50.5 11.0,-0.5 21.0,-0.5 5,50.5" style="fill:#00f"/>
    </g>
    <text x="20.0" y="35.0">.where(name:    )</text>
    <g transform="translate(234.5 0)">
      <polygon points="0,8 0,42.0 36.15,42.0 46.35,8" style="fill:#eee; stroke:black; stroke-width:1.0"/>
      <g transform="translate(33.25 8) scale(0.68 0.68)">
        <polygon points="-5,50.5 11.0,-0.5 21.0,-0.5 5,50.5" style="fill:yellow"/>
      </g>
    </g>
  </g>
  <g transform="translate(510 420.0)" class="draggable word" onmousedown="selectElement(event, this)">
    <polygon points="0,50.0 0.0,0 71.5,0 56.5,50.0" style="fill:white; stroke:black; stroke-width:1.0"/>
    <g transform="translate(56.5 0)">
      <polygon points="-5,50.5 11.0,-0.5 21.0,-0.5 5,50.5" style="fill:red"/>
    </g>
    <text x="20.0" y="35.0">1</text>
  </g>
  <g transform="translate(510 480.0)" class="draggable word" onmousedown="selectElement(event, this)">
    <polygon points="0,50.0 0.0,0 71.5,0 56.5,50.0" style="fill:white; stroke:black; stroke-width:1.0"/>
    <g transform="translate(56.5 0)">
      <polygon points="-5,50.5 11.0,-0.5 21.0,-0.5 5,50.5" style="fill:red"/>
    </g>
    <text x="20.0" y="35.0">2</text>
  </g>
  <g transform="translate(510 540.0)" class="draggable word" onmousedown="selectElement(event, this)">
    <polygon points="0,50.0 0.0,0 71.5,0 56.5,50.0" style="fill:white; stroke:black; stroke-width:1.0"/>
    <g transform="translate(56.5 0)">
      <polygon points="-5,50.5 11.0,-0.5 21.0,-0.5 5,50.5" style="fill:red"/>
    </g>
    <text x="20.0" y="35.0">3</text>
  </g>
  <g transform="translate(510 600.0)" class="draggable word" onmousedown="selectElement(event, this)">
    <polygon points="0,50.0 15.0,0 104.5,0 89.5,50.0" style="fill:white; stroke:black; stroke-width:1.0"/>
    <polygon points="-5,50.5 11.0,-0.5 21.0,-0.5 5,50.5" style="fill:#dfd"/>
    <g transform="translate(89.5 0)">
      <polygon points="-5,50.5 11.0,-0.5 21.0,-0.5 5,50.5" style="fill:red"/>
    </g>
    <text x="20.0" y="35.0">.id</text>
  </g>
  <g transform="translate(510 660.0)" class="draggable word" onmousedown="selectElement(event, this)">
    <polygon points="0,50.0 15.0,0 236.5,0 221.5,50.0" style="fill:white; stroke:black; stroke-width:1.0"/>
    <polygon points="-5,50.5 11.0,-0.5 21.0,-0.5 5,50.5" style="fill:#ddf"/>
    <g transform="translate(221.5 0)">
      <polygon points="-5,50.5 11.0,-0.5 21.0,-0.5 5,50.5" style="fill:red"/>
    </g>
    <text x="20.0" y="35.0">.company_id</text>
  </g>
  <g transform="translate(510 720.0)" class="draggable word" onmousedown="selectElement(event, this)">
    <polygon points="0,50.0 15.0,0 104.5,0 89.5,50.0" style="fill:white; stroke:black; stroke-width:1.0"/>
    <polygon points="-5,50.5 11.0,-0.5 21.0,-0.5 5,50.5" style="fill:#ddf"/>
    <g transform="translate(89.5 0)">
      <polygon points="-5,50.5 11.0,-0.5 21.0,-0.5 5,50.5" style="fill:red"/>
    </g>
    <text x="20.0" y="35.0">.id</text>
  </g>
  <g transform="translate(510 780.0)" class="draggable word" onmousedown="selectElement(event, this)">
    <polygon points="0,50.0 15.0,0 137.5,0 122.5,50.0" style="fill:white; stroke:black; stroke-width:1.0"/>
    <polygon points="-5,50.5 11.0,-0.5 21.0,-0.5 5,50.5" style="fill:yellow"/>
    <g transform="translate(122.5 0)">
      <polygon points="-5,50.5 11.0,-0.5 21.0,-0.5 5,50.5" style="fill:red"/>
    </g>
    <text x="20.0" y="35.0">.to_i</text>
  </g>
  <g transform="translate(510 840.0)" class="draggable word" onmousedown="selectElement(event, this)">
    <polygon points="0,50.0 0.0,0 236.5,0 221.5,50.0" style="fill:white; stroke:black; stroke-width:1.0"/>
    <g transform="translate(221.5 0)">
      <polygon points="-5,50.5 11.0,-0.5 21.0,-0.5 5,50.5" style="fill:yellow"/>
    </g>
    <text x="20.0" y="35.0">params[   ]</text>
    <g transform="translate(135.5 0)">
      <polygon points="0,8 0,42.0 36.15,42.0 46.35,8" style="fill:#eee; stroke:black; stroke-width:1.0"/>
      <g transform="translate(33.25 8) scale(0.68 0.68)">
        <polygon points="-5,50.5 11.0,-0.5 21.0,-0.5 5,50.5" style="fill:yellow"/>
      </g>
    </g>
  </g>
  <g transform="translate(510 900.0)" class="draggable word" onmousedown="selectElement(event, this)">
    <polygon points="0,50.0 15.0,0 137.5,0 122.5,50.0" style="fill:white; stroke:black; stroke-width:1.0"/>
    <polygon points="-5,50.5 11.0,-0.5 21.0,-0.5 5,50.5" style="fill:#dfd"/>
    <g transform="translate(122.5 0)">
      <polygon points="-5,50.5 11.0,-0.5 21.0,-0.5 5,50.5" style="fill:yellow"/>
    </g>
    <text x="20.0" y="35.0">.name</text>
  </g>
  <g transform="translate(510 960.0)" class="draggable word" onmousedown="selectElement(event, this)">
    <polygon points="0,50.0 15.0,0 269.5,0 254.5,50.0" style="fill:white; stroke:black; stroke-width:1.0"/>
    <polygon points="-5,50.5 11.0,-0.5 21.0,-0.5 5,50.5" style="fill:#dfd"/>
    <g transform="translate(254.5 0)">
      <polygon points="-5,50.5 11.0,-0.5 21.0,-0.5 5,50.5" style="fill:yellow"/>
    </g>
    <text x="20.0" y="35.0">.stock_symbol</text>
  </g>
  <g transform="translate(510 1020.0)" class="draggable word" onmousedown="selectElement(event, this)">
    <polygon points="0,50.0 15.0,0 236.5,0 221.5,50.0" style="fill:white; stroke:black; stroke-width:1.0"/>
    <polygon points="-5,50.5 11.0,-0.5 21.0,-0.5 5,50.5" style="fill:#ddf"/>
    <g transform="translate(221.5 0)">
      <polygon points="-5,50.5 11.0,-0.5 21.0,-0.5 5,50.5" style="fill:yellow"/>
    </g>
    <text x="20.0" y="35.0">.first_name</text>
  </g>
  <g transform="translate(510 1080.0)" class="draggable word" onmousedown="selectElement(event, this)">
    <polygon points="0,50.0 15.0,0 220.0,0 205.0,50.0" style="fill:white; stroke:black; stroke-width:1.0"/>
    <polygon points="-5,50.5 11.0,-0.5 21.0,-0.5 5,50.5" style="fill:#ddf"/>
    <g transform="translate(205.0 0)">
      <polygon points="-5,50.5 11.0,-0.5 21.0,-0.5 5,50.5" style="fill:yellow"/>
    </g>
    <text x="20.0" y="35.0">.last_name</text>
  </g>
  <g transform="translate(510 1140.0)" class="draggable word" onmousedown="selectElement(event, this)">
    <polygon points="0,50.0 0.0,0 154.0,0 139.0,50.0" style="fill:white; stroke:black; stroke-width:1.0"/>
    <g transform="translate(139.0 0)">
      <polygon points="-5,50.5 11.0,-0.5 21.0,-0.5 5,50.5" style="fill:orange"/>
    </g>
    <text x="20.0" y="35.0">:index</text>
  </g>
  <text x="0" y="15" fill="orange">SYMBOL</text>
  <text x="100" y="35" fill="yellow">STRING</text>
  <text x="200" y="15" fill="red">INTEGER</text>
  <text x="300" y="35" fill="#006">EMPLOYEE_CLASS_OBJECT</text>
  <text x="400" y="15" fill="#00f">EMPLOYEE_RELATION</text>
  <text x="500" y="35" fill="#ddf">EMPLOYEE_OBJECT</text>
  <text x="600" y="15" fill="#060">COMPANY_CLASS_OBJECT</text>
  <text x="700" y="35" fill="#0f0">COMPANY_RELATION</text>
  <text x="800" y="15" fill="#dfd">COMPANY_OBJECT</text>
</svg>
